<?xml version="1.0" encoding="UTF-8" standalone="no"?>
<!-- Created with Inkscape (http://www.inkscape.org/) -->

<svg
   xmlns:dc="http://purl.org/dc/elements/1.1/"
   xmlns:cc="http://creativecommons.org/ns#"
   xmlns:rdf="http://www.w3.org/1999/02/22-rdf-syntax-ns#"
   xmlns:svg="http://www.w3.org/2000/svg"
   xmlns="http://www.w3.org/2000/svg"
   xmlns:xlink="http://www.w3.org/1999/xlink"
   version="1.1"
   width="48"
   height="48"
   id="svg11300">
  <defs
     id="defs3">
    <linearGradient
       id="linearGradient2994">
      <stop
         id="stop2996"
         style="stop-color:#000000;stop-opacity:1"
         offset="0" />
      <stop
         id="stop2998"
         style="stop-color:#c9c9c9;stop-opacity:1"
         offset="1" />
    </linearGradient>
    <linearGradient
       x1="25.71875"
       y1="31.046875"
       x2="25.514589"
       y2="30.703125"
       id="linearGradient2560"
       xlink:href="#linearGradient2994"
       gradientUnits="userSpaceOnUse"
       gradientTransform="translate(-5.825542,0.125)" />
    <linearGradient
       id="linearGradient2984">
      <stop
         id="stop2986"
         style="stop-color:#e7e2b8;stop-opacity:1"
         offset="0" />
      <stop
         id="stop2988"
         style="stop-color:#e7e2b8;stop-opacity:0"
         offset="1" />
    </linearGradient>
    <radialGradient
       cx="29.053354"
       cy="27.640751"
       r="3.2408545"
       fx="29.053354"
       fy="27.640751"
       id="radialGradient2558"
       xlink:href="#linearGradient2984"
       gradientUnits="userSpaceOnUse"
       gradientTransform="matrix(2.923565,0,0,2.029717,-61.55532,-27.88417)" />
    <linearGradient
       id="linearGradient2974">
      <stop
         id="stop2976"
         style="stop-color:#c1c1c1;stop-opacity:1"
         offset="0" />
      <stop
         id="stop2978"
         style="stop-color:#acacac;stop-opacity:1"
         offset="1" />
    </linearGradient>
    <linearGradient
       x1="46"
       y1="19.8125"
       x2="47.6875"
       y2="22.625"
       id="linearGradient2556"
       xlink:href="#linearGradient2974"
       gradientUnits="userSpaceOnUse"
       gradientTransform="translate(-5.669292,0)" />
    <linearGradient
       id="linearGradient2966">
      <stop
         id="stop2968"
         style="stop-color:#ffd1d1;stop-opacity:1"
         offset="0" />
      <stop
         id="stop3006"
         style="stop-color:#ff1d1d;stop-opacity:1"
         offset="0.5" />
      <stop
         id="stop2970"
         style="stop-color:#6f0000;stop-opacity:1"
         offset="1" />
    </linearGradient>
    <linearGradient
       x1="48.90625"
       y1="17.376184"
       x2="50.988335"
       y2="22.250591"
       id="linearGradient2554"
       xlink:href="#linearGradient2966"
       gradientUnits="userSpaceOnUse"
       gradientTransform="translate(-5.669292,0)" />
    <radialGradient
       cx="23.5625"
       cy="40.4375"
       r="19.5625"
       fx="23.5625"
       fy="40.4375"
       id="radialGradient2552"
       xlink:href="#linearGradient2865"
       gradientUnits="userSpaceOnUse"
       gradientTransform="matrix(1,0,0,0.348243,0,26.35543)" />
    <linearGradient
       id="linearGradient6417">
      <stop
         id="stop6419"
         style="stop-color:#000000;stop-opacity:1"
         offset="0" />
      <stop
         id="stop6421"
         style="stop-color:#000000;stop-opacity:0"
         offset="1" />
    </linearGradient>
    <linearGradient
       id="linearGradient6407">
      <stop
         id="stop6409"
         style="stop-color:#ffffff;stop-opacity:1"
         offset="0" />
      <stop
         id="stop6411"
         style="stop-color:#ffffff;stop-opacity:0"
         offset="1" />
    </linearGradient>
    <linearGradient
       id="linearGradient6377">
      <stop
         id="stop6379"
         style="stop-color:#fff27e;stop-opacity:1"
         offset="0" />
      <stop
         id="stop6381"
         style="stop-color:#edd400;stop-opacity:1"
         offset="1" />
    </linearGradient>
    <linearGradient
       id="linearGradient5609">
      <stop
         id="stop5611"
         style="stop-color:#ffffff;stop-opacity:1"
         offset="0" />
      <stop
         id="stop5613"
         style="stop-color:#ffffff;stop-opacity:0"
         offset="1" />
    </linearGradient>
    <linearGradient
       id="linearGradient2865">
      <stop
         id="stop2867"
         style="stop-color:#000000;stop-opacity:1"
         offset="0" />
      <stop
         id="stop2869"
         style="stop-color:#000000;stop-opacity:0"
         offset="1" />
    </linearGradient>
    <linearGradient
       x1="26.213203"
       y1="14.08672"
       x2="26.130388"
       y2="67.031342"
       id="linearGradient5615"
       xlink:href="#linearGradient5609"
       gradientUnits="userSpaceOnUse" />
    <radialGradient
       cx="45.150326"
       cy="35.915409"
       r="21.626934"
       fx="45.150326"
       fy="35.915409"
       id="radialGradient6405"
       xlink:href="#linearGradient6377"
       gradientUnits="userSpaceOnUse"
       gradientTransform="matrix(1.669712,0,1.702451e-8,1.220484,-30.23773,-11.79928)" />
    <radialGradient
       cx="43.875"
       cy="35.90107"
       r="20.21875"
       fx="43.875"
       fy="35.90107"
       id="radialGradient6413"
       xlink:href="#linearGradient6407"
       gradientUnits="userSpaceOnUse"
       gradientTransform="matrix(10.88255,-6.454846e-8,0,11.39737,-433.5968,-381.3811)" />
    <radialGradient
       cx="39.907337"
       cy="31.780704"
       r="5.2591066"
       fx="39.907337"
       fy="31.780704"
       id="radialGradient6423"
       xlink:href="#linearGradient6417"
       gradientUnits="userSpaceOnUse"
       gradientTransform="matrix(1,0,0,0.361345,0,22.29694)" />
  </defs>
  <metadata
     id="metadata4">
    <rdf:RDF>
      <cc:Work
         rdf:about="">
        <dc:format>image/svg+xml</dc:format>
        <dc:type
           rdf:resource="http://purl.org/dc/dcmitype/StillImage" />
        <dc:creator>
          <cc:Agent>
            <dc:title>Jakub Steiner</dc:title>
          </cc:Agent>
        </dc:creator>
        <dc:source>http://jimmac.musichall.cz</dc:source>
        <cc:license
           rdf:resource="http://creativecommons.org/licenses/GPL/2.0/" />
        <dc:title></dc:title>
      </cc:Work>
      <cc:License
         rdf:about="http://creativecommons.org/licenses/GPL/2.0/">
        <cc:permits
           rdf:resource="http://web.resource.org/cc/Reproduction" />
        <cc:permits
           rdf:resource="http://web.resource.org/cc/Distribution" />
        <cc:requires
           rdf:resource="http://web.resource.org/cc/Notice" />
        <cc:permits
           rdf:resource="http://web.resource.org/cc/DerivativeWorks" />
        <cc:requires
           rdf:resource="http://web.resource.org/cc/ShareAlike" />
        <cc:requires
           rdf:resource="http://web.resource.org/cc/SourceCode" />
      </cc:License>
    </rdf:RDF>
  </metadata>
  <g
     id="layer1">
    <g
       transform="matrix(0.211321,0,0,0.209762,-0.326773,3.523521)"
       id="g1197"
       style="display:inline">
      <path
         d="m 32.706693,164.36026 c -10.3875,0 -18.75,8.3625 -18.75,18.75 0,10.3875 8.3625,18.75 18.75,18.75 l 172.499997,0 c 10.3875,0 18.75,-8.3625 18.75,-18.75 0,-10.3875 -8.3625,-18.75 -18.75,-18.75 l -172.499997,0 z"
         id="path1196"
         style="opacity:0.04787233;fill-rule:evenodd;stroke-width:3pt" />
      <path
         d="m 32.706693,165.61026 c -9.695,0 -17.5,7.805 -17.5,17.5 0,9.695 7.805,17.5 17.5,17.5 l 172.499997,0 c 9.695,0 17.5,-7.805 17.5,-17.5 0,-9.695 -7.805,-17.5 -17.5,-17.5 l -172.499997,0 z"
         id="path1195"
         style="opacity:0.04787233;fill-rule:evenodd;stroke-width:3pt" />
      <path
         d="m 32.706694,166.86026 c -9.0025,0 -16.25,7.2475 -16.25,16.25 0,9.0025 7.2475,16.25 16.25,16.25 l 172.499996,0 c 9.0025,0 16.25,-7.2475 16.25,-16.25 0,-9.0025 -7.2475,-16.25 -16.25,-16.25 l -172.499996,0 z"
         id="path1194"
         style="opacity:0.04787233;fill-rule:evenodd;stroke-width:3pt" />
      <path
         d="m 32.706694,168.11026 c -8.31,0 -15,6.69 -15,15 0,8.31 6.69,15 15,15 l 172.499996,0 c 8.31,0 15,-6.69 15,-15 0,-8.31 -6.69,-15 -15,-15 l -172.499996,0 z"
         id="path1193"
         style="opacity:0.04787233;fill-rule:evenodd;stroke-width:3pt" />
      <path
         d="m 32.707764,169.36026 c -7.6175,0 -13.75,6.1325 -13.75,13.75 0,7.6175 6.1325,13.75 13.75,13.75 l 172.498416,0 c 7.6175,0 13.75,-6.1325 13.75,-13.75 0,-7.6175 -6.1325,-13.75 -13.75,-13.75 l -172.498416,0 z"
         id="path1192"
         style="opacity:0.04787233;fill-rule:evenodd;stroke-width:3pt" />
      <path
         d="m 32.706694,170.61026 c -6.925,0 -12.5,5.575 -12.5,12.5 0,6.925 5.575,12.5 12.5,12.5 l 172.499996,0 c 6.925,0 12.5,-5.575 12.5,-12.5 0,-6.925 -5.575,-12.5 -12.5,-12.5 l -172.499996,0 z"
         id="path1191"
         style="opacity:0.04787233;fill-rule:evenodd;stroke-width:3pt" />
      <path
         d="m 32.706694,171.86026 c -6.2325,0 -11.25,5.0175 -11.25,11.25 0,6.2325 5.0175,11.25 11.25,11.25 l 172.499996,0 c 6.2325,0 11.25,-5.0175 11.25,-11.25 0,-6.2325 -5.0175,-11.25 -11.25,-11.25 l -172.499996,0 z"
         id="path1190"
         style="opacity:0.04787233;fill-rule:evenodd;stroke-width:3pt" />
      <path
         d="m 32.706694,173.11026 c -5.54,0 -10,4.46 -10,10 0,5.54 4.46,10 10,10 l 172.499996,0 c 5.54,0 10,-4.46 10,-10 0,-5.54 -4.46,-10 -10,-10 l -172.499996,0 z"
         id="path1189"
         style="opacity:0.04787233;fill-rule:evenodd;stroke-width:3pt" />
    </g>
    <path
       d="m 10.301452,14.596007 28.649253,0.353553 c 0.762577,0 1.24391,0.576646 1.376493,1.193837 0,0 4.40133,19.815144 4.40133,19.815144 0,0 0.01246,6.347622 0.01246,6.347622 0,0.661386 -0.613915,1.193837 -1.376492,1.193837 l -37.4768304,0 C 5.1250868,43.5 4.5111713,42.967549 4.5111713,42.306163 L 4.4999999,36.139247 8.9249601,15.789844 c 0.3093592,-0.661386 0.6139156,-1.193837 1.3764919,-1.193837 z"
       id="rect1975"
       style="color:#000000;fill:#edd400;fill-opacity:1;fill-rule:evenodd;stroke:#c4a000;stroke-width:0.99999982;stroke-linecap:butt;stroke-linejoin:miter;stroke-miterlimit:4;stroke-opacity:1;stroke-dashoffset:0;marker:none;visibility:visible;display:inline;overflow:visible" />
    <rect
       width="39.048077"
       height="7.0714951"
       rx="0.67937863"
       ry="0.67937863"
       x="5.1146202"
       y="35.957905"
       id="rect2851"
       style="opacity:0.37078654;color:#000000;fill:#f57900;fill-opacity:1;fill-rule:evenodd;stroke:none;stroke-width:1;marker:none;visibility:visible;display:inline;overflow:visible" />
    <path
       d="m 5.0643333,36.53243 c 0,0 0.1508618,-0.53033 0.704022,-0.574524 l 37.5646027,0 c 0.754309,0 0.804596,0.751301 0.804596,0.751301 0,0 0.0236,-1.619573 -1.283871,-1.619573 l -36.4118845,0 c -1.0057457,0.08839 -1.3774652,0.779883 -1.3774652,1.442796 z"
       id="path2853"
       style="opacity:0.16292138;color:#000000;fill:#ffffff;fill-opacity:1;fill-rule:evenodd;stroke:none;stroke-width:1;marker:none;visibility:visible;display:inline;overflow:visible" />
    <path
       d="m 10.3125,15.59375 c -0.151316,0 -0.09946,-0.02674 -0.15625,0.03125 -0.05088,0.05195 -0.155811,0.275085 -0.28125,0.53125 -0.014579,0.02977 -0.016184,0.03029 -0.03125,0.0625 L 5.5,36.125 l 0,0.0625 0,6.125 c 0,0.04407 0.072368,0.1875 0.375,0.1875 l 37.5,0 c 0.302632,0 0.375,-0.143429 0.375,-0.1875 0,0 -0.03035,-6.068147 -0.03125,-6.25 -2.51e-4,-0.0011 4.27e-4,-0.09183 0,-0.09375 C 43.625157,35.547912 39.34375,16.375 39.34375,16.375 39.2872,16.111751 39.174175,15.9375 38.9375,15.9375 l -28.625,-0.34375 z"
       id="path4730"
       style="opacity:0.4831461;color:#000000;fill:none;stroke:url(#linearGradient5615);stroke-width:0.99999982;stroke-linecap:butt;stroke-linejoin:miter;stroke-miterlimit:4;stroke-opacity:1;stroke-dashoffset:0;marker:none;visibility:visible;display:inline;overflow:visible" />
    <path
       d="M 44.194174,35.681088 C 43.814854,34.425759 43.31029,31.880389 43.31029,31.880389 l -8.927222,3.181981 c 5.745243,0 8.573669,-0.265165 9.811106,0.618718 z"
       id="path6415"
       style="opacity:0.46629214;color:#000000;fill:url(#radialGradient6423);fill-opacity:1;fill-rule:evenodd;stroke:none;stroke-width:1;marker:none;visibility:visible;display:inline;overflow:visible" />
    <path
       d="m 8.7832195,16.426565 -4.13483,18.029279 c 0,0 21.4716075,0.125001 29.2755775,0.125001 7.980569,0 11.155067,-2.96842 11.155067,-2.96842 0,0 -1.006743,-0.453488 -2.325109,-4.966721 0,0 -2.403785,-10.500389 -2.403785,-10.500389 -0.463441,-1.186401 -0.856206,-1.663669 -1.75639,-1.65625 l -27.78125,0 c -1.7452746,0.03209 -1.7364187,0.835552 -2.0292805,1.9375 z"
       id="path2524"
       style="fill:url(#radialGradient6405);fill-opacity:1;fill-rule:evenodd;stroke:#c4a000;stroke-width:0.99999964px;stroke-linecap:butt;stroke-linejoin:miter;stroke-opacity:1" />
    <path
       d="m 10.8125,15.5 c -0.640289,0.01823 -0.708297,0.09979 -0.75,0.15625 -0.04337,0.05872 -0.1500731,0.420088 -0.3125,1.03125 L 5.90625,33.46875 c 1.6944357,0.0098 20.570644,0.125 28.03125,0.125 3.866286,0 6.517278,-0.714302 8.1875,-1.40625 1.054074,-0.436687 1.113325,-0.577029 1.4375,-0.8125 -0.490628,-0.789905 -1.105041,-2.122597 -1.78125,-4.4375 -6.51e-4,-0.02083 -6.51e-4,-0.04167 0,-0.0625 0,0 -2.305929,-10.042349 -2.375,-10.34375 -0.213987,-0.547802 -0.381897,-0.850763 -0.46875,-0.9375 -0.08685,-0.08674 -0.07155,-0.09599 -0.34375,-0.09375 l -27.75,0 -0.03125,0 z"
       id="path6403"
       style="opacity:0.46629214;fill:none;stroke:url(#radialGradient6413);stroke-width:0.99999964px;stroke-linecap:butt;stroke-linejoin:miter;stroke-opacity:1" />
    <path
       d="m 5.0643333,38.53243 c 0,0 0.1508618,-0.53033 0.704022,-0.574524 l 37.5646027,0 c 0.754309,0 0.804596,0.751301 0.804596,0.751301 0,0 0.0236,-1.619573 -1.283871,-1.619573 l -36.4118845,0 c -1.0057457,0.08839 -1.3774652,0.779883 -1.3774652,1.442796 z"
       id="path6359"
       style="opacity:0.26404497;color:#000000;fill:#ffffff;fill-opacity:1;fill-rule:evenodd;stroke:none;stroke-width:1;marker:none;visibility:visible;display:inline;overflow:visible" />
    <path
       d="m 5.0643333,40.53243 c 0,0 0.1508618,-0.53033 0.704022,-0.574524 l 37.5646027,0 c 0.754309,0 0.804596,0.751301 0.804596,0.751301 0,0 0.0236,-1.619573 -1.283871,-1.619573 l -36.4118845,0 c -1.0057457,0.08839 -1.3774652,0.779883 -1.3774652,1.442796 z"
       id="path6361"
       style="opacity:0.26404497;color:#000000;fill:#ffffff;fill-opacity:1;fill-rule:evenodd;stroke:none;stroke-width:1;marker:none;visibility:visible;display:inline;overflow:visible" />
    <path
       d="m 5.0643333,42.53243 c 0,0 0.1508618,-0.53033 0.704022,-0.574524 l 37.5646027,0 c 0.754309,0 0.804596,0.751301 0.804596,0.751301 0,0 0.0236,-1.619573 -1.283871,-1.619573 l -36.4118845,0 c -1.0057457,0.08839 -1.3774652,0.779883 -1.3774652,1.442796 z"
       id="path6363"
       style="opacity:0.26404497;color:#000000;fill:#ffffff;fill-opacity:1;fill-rule:evenodd;stroke:none;stroke-width:1;marker:none;visibility:visible;display:inline;overflow:visible" />
    <path
       d="m 43.125,40.4375 a 19.5625,6.8125 0 1 1 -39.125,0 19.5625,6.8125 0 1 1 39.125,0 z"
       transform="matrix(0.616613,0,0,0.293577,11.48816,14.62848)"
       id="path3008"
       style="opacity:0.2;color:#000000;fill:url(#radialGradient2552);fill-opacity:1;fill-rule:evenodd;stroke:none;stroke-width:1;marker:none;visibility:visible;display:inline;overflow:visible" />
    <g
       transform="matrix(1.033699,-0.276979,0.276979,1.033699,14.81828,-29.04823)"
       id="g1574"
       style="display:inline">
      <path
         d="m 17.34116,32.5 5.625,-5.625 20.093749,-9.75 c 3.25,-1.25 5.1875,3.375 2.3125,5 L 25.34116,31.5 l -8,1 z"
         transform="translate(-29.75546,19)"
         id="path2960"
         style="color:#000000;fill:#cb9022;fill-opacity:1;fill-rule:evenodd;stroke:#5c410c;stroke-width:0.93443578;stroke-linecap:butt;stroke-linejoin:miter;stroke-miterlimit:4;stroke-opacity:1;stroke-dasharray:none;stroke-dashoffset:0;marker:none;visibility:visible;display:inline;overflow:visible" />
      <path
         d="m 38.330708,20 c 0,0 1.4375,0.09375 2,1.34375 0.579493,1.287761 0,2.65625 0,2.65625 l 5.03125,-2.46875 c 0,0 1.452032,-0.881367 0.65625,-2.84375 -0.784912,-1.935577 -2.6875,-1.15625 -2.6875,-1.15625 l -5,2.46875 z"
         transform="translate(-29.75546,19)"
         id="path2964"
         style="color:#000000;fill:url(#linearGradient2554);fill-opacity:1;fill-rule:evenodd;stroke:none;stroke-width:1;marker:none;visibility:visible;display:inline;overflow:visible" />
      <path
         d="m 38.330708,20 c 0,0 1.4375,0.09375 2,1.34375 0.579493,1.287761 0,2.65625 0,2.65625 l 2,-1 c 0,0 0.827032,-1.318867 0.21875,-2.6875 C 41.924458,18.90625 40.330708,19 40.330708,19 l -2,1 z"
         transform="translate(-29.75546,19)"
         id="path2962"
         style="color:#000000;fill:url(#linearGradient2556);fill-opacity:1;fill-rule:evenodd;stroke:none;stroke-width:1;marker:none;visibility:visible;display:inline;overflow:visible" />
      <path
         d="m 18.768208,31.78125 4.5,-4.5 c 1.5,0.8125 2.28125,2.15625 1.875,3.71875 l -6.375,0.78125 z"
         transform="translate(-29.75546,19)"
         id="path2982"
         style="color:#000000;fill:url(#radialGradient2558);fill-opacity:1;fill-rule:evenodd;stroke:none;stroke-width:1;marker:none;visibility:visible;display:inline;overflow:visible" />
      <path
         d="m 20.111958,30.375 -1.625,1.59375 2.34375,-0.3125 c 0.21875,-0.71875 -0.1875,-1.0625 -0.71875,-1.28125 z"
         transform="translate(-29.75546,19)"
         id="path2992"
         style="color:#000000;fill:url(#linearGradient2560);fill-opacity:1;fill-rule:evenodd;stroke:none;stroke-width:1;marker:none;visibility:visible;display:inline;overflow:visible" />
      <path
         d="m 23.268208,27.25 1.5625,1.25 15.38734,-7.31867 C 39.773616,20.325286 38.976281,20.096733 38.314669,20.019068 L 23.268208,27.25 z"
         transform="translate(-29.75546,19)"
         id="path3002"
         style="color:#000000;fill:#ffffff;fill-opacity:0.36363639;fill-rule:evenodd;stroke:none;stroke-width:1;marker:none;visibility:visible;display:inline;overflow:visible" />
      <path
         d="m 25.143208,31.0625 0.1875,-0.75 15.23109,-7.1296 c 0,0 -0.11016,0.613627 -0.215879,0.74935 L 25.143208,31.0625 z"
         transform="translate(-29.75546,19)"
         id="path3004"
         style="color:#000000;fill:#000000;fill-opacity:0.36363639;fill-rule:evenodd;stroke:none;stroke-width:1;marker:none;visibility:visible;display:inline;overflow:visible" />
    </g>
  </g>
</svg>
